inDegrees=yes
name=ik_S48_A11_T02
DataType=double
version=3
OpenSimVersion=4.3-2021-08-27-4bc7ad9
endheader
time	pelvis_tilt	pelvis_list	pelvis_rotation	pelvis_tx	pelvis_ty	pelvis_tz	hip_flexion_r	hip_adduction_r	hip_rotation_r	knee_angle_r	knee_angle_r_beta	ankle_angle_r	subtalar_angle_r	mtp_angle_r	hip_flexion_l	hip_adduction_l	hip_rotation_l	knee_angle_l	knee_angle_l_beta	ankle_angle_l	subtalar_angle_l	mtp_angle_l	lumbar_extension	lumbar_bending	lumbar_rotation	arm_flex_r	arm_add_r	arm_rot_r	elbow_flex_r	pro_sup_r	wrist_flex_r	wrist_dev_r	arm_flex_l	arm_add_l	arm_rot_l	elbow_flex_l	pro_sup_l	wrist_flex_l	wrist_dev_l
0	0	0	0	0	0.9399999999999999	0	0	0	0	0	0	0	0	0	0	0	0	0	0	0	0	0	0	0	0	0	0	0	0	89.99999999963507	0	0	0	0	0	0	89.99999999869995	0	0
0.02	-2.26586428028106	-0.9854960247671916	24.47827407558918	0	0.9399999999999999	0	2.308055784703417	-1.083744881874346	-0.7772566589372769	3.597586986525227	0.06278973804176609	0	0	0	2.308055784703417	-1.083744881874346	-0.7772566589372769	3.597586986525227	0.06278973804176609	0	0	0	-1.251287125088261	-0.8056578129347225	9.632532457971715	24.33682227604104	-5.530670829961347	-14.48280333537342	4.484695343516702	126.3212841553301	0	0	13.19548033472657	-12.69862335716491	-7.49444993237865	13.78031056115361	124.2586521621033	0	0
0.04	-2.259152989867691	-0.9848502961879676	24.74204579840094	0	0.9399999999999999	0	4.38090053749012	-2.066677552991991	-1.516150517249511	5.893038564844313	0.1028529259035346	0	0	0	4.38090053749012	-2.066677552991991	-1.516150517249511	5.893038564844313	0.1028529259035346	0	0	0	-1.284862173850856	-0.784573376718797	9.424454227270203	24.34998728878982	-5.565065377114149	-14.5211612797118	4.499135099348683	126.3357743059321	0	0	13.23084326121874	-12.67515245761459	-7.448275409797235	13.81648326401575	124.220223243798	0	0
0.06	-2.259189743240373	-0.972223335397045	24.78228881985486	0	0.9399999999999999	0	4.388817044274327	-2.070645434148689	-1.518851754386402	5.903538856180586	0.1030361905597712	0	0	0	4.388817044274327	-2.070645434148689	-1.518851754386402	5.903538856180586	0.1030361905597712	0	0	0	-1.279610222681492	-0.7732413037484928	9.431214865178671	24.30846071935268	-5.580701740051752	-14.60400548538301	4.502614949318097	126.3678721767019	0	0	13.17300242335811	-12.69962251103537	-7.520920320539004	13.81832521945491	124.2626319584542	0	0
0.08	-2.261222612425768	-0.9623059627024415	24.83316959226823	0	0.9399999999999999	0	4.395710755313887	-2.074106563723944	-1.521205276158436	5.912676034100272	0.1031956643988103	0	0	0	4.395710755313887	-2.074106563723944	-1.521205276158436	5.912676034100272	0.1031956643988103	0	0	0	-1.277176691692934	-0.7637520332252588	9.445064927700173	24.286085426175	-5.596665199213928	-14.66521994275936	4.5025902074888	126.3939121599184	0	0	13.10465552212831	-12.72017951239447	-7.603185072368266	13.84711279602618	124.3228269966346	0	0
0.1	-2.228765593491979	-0.9375576686829824	25.05580585580836	0	0.9399999999999999	0	6.263835189795079	-2.848124414994295	-2.170938061704577	7.529255527767816	0.1314102991835317	0	0	0	6.263835189795079	-2.848124414994295	-2.170938061704577	7.529255527767816	0.1314102991835317	0	0	0	-1.282203819373502	-0.7150845623577323	9.272437439424309	24.22115678568747	-5.614253511143893	-14.69881691537089	4.514477686817695	126.4058299393297	0	0	13.03516240992285	-12.66149758946019	-7.583326114593327	13.93891323751815	124.3582686217019	0	0
0.12	-2.218037417928452	-0.9056691687958933	25.09703998372566	0	0.9399999999999999	0	6.276036764236629	-2.854104520802862	-2.17510444190281	7.544906438326644	0.1316834591037184	0	0	0	6.276036764236629	-2.854104520802862	-2.17510444190281	7.544906438326644	0.1316834591037184	0	0	0	-1.259194998226901	-0.6905507879605223	9.268226925514321	24.16264585791935	-5.62676958646003	-14.68860653426893	4.503208085850416	126.4308539784203	0	0	12.93505263262822	-12.69051828545727	-7.751805668746899	13.83170102504461	124.4606294756631	0	0
0.14	-2.173480339830814	-0.896137680234493	25.45839889968313	0	0.9399999999999999	0	10.22005188101845	-4.388319096809029	-3.490409704600057	11.35874371350127	0.1982474766908047	0	0	0	10.22005188101845	-4.388319096809029	-3.490409704600057	11.35874371350127	0.1982474766908047	0	0	0	-1.300951228369111	-0.6407568366436932	8.897300945733402	24.12569290919576	-5.612078297196649	-14.6304013787003	4.607840141996061	126.3463694949511	0	0	12.81728910461617	-12.71253554490015	-7.897162106270762	14.06500428150376	124.5120886606844	0	0
0.16	-2.17588428853383	-0.8754355200849834	25.56355764309445	0	0.9399999999999999	0	10.68941212136659	-4.561220613172053	-3.639886599553088	11.84432898987151	0.206722538562672	0	0	0	10.68941212136659	-4.561220613172053	-3.639886599553088	11.84432898987151	0.206722538562672	0	0	0	-1.297069029846101	-0.6283216403843641	8.865761619772339	24.08684604308774	-5.624141441645412	-14.71150365568786	4.542483417144657	126.4226285712544	0	0	12.82144419545276	-12.68105981083006	-7.911379953079382	13.88545598881292	124.6317542363373	0	0
0.18	-2.169019828210359	-0.8460161128108326	25.61075130993419	0	0.9399999999999999	0	10.85326547935277	-4.614765663818732	-3.690752862547174	11.99731077769554	0.2093925744557887	0	0	0	10.85326547935277	-4.614765663818732	-3.690752862547174	11.99731077769554	0.2093925744557887	0	0	0	-1.281267923333233	-0.6032465589911858	8.854269529397287	24.04693244133032	-5.612676866223855	-14.71724999520147	4.468898255704578	126.3414134524135	0	0	12.72853475603966	-12.66080066566988	-7.965849803659353	13.93633277280465	124.6112153413676	0	0
